<?xml version="1.0" standalone="no"?>
<!DOCTYPE svg PUBLIC "-//W3C//DTD SVG 20010904//EN"
 "http://www.w3.org/TR/2001/REC-SVG-20010904/DTD/svg10.dtd">
<svg version="1.0" xmlns="http://www.w3.org/2000/svg"
 width="16.000000pt" height="16.000000pt" viewBox="0 0 16.000000 16.000000"
 preserveAspectRatio="xMidYMid meet">
<metadata>
Created by potrace 1.11, written by Peter Selinger 2001-2013
</metadata>
<g transform="translate(0.000000,16.000000) scale(0.006154,-0.006154)"
fill="#000000" stroke="none">
<path d="M550 2425 l0 -175 59 0 60 0 -1 51 c0 28 3 53 7 57 10 11 89 11 96 1
3 -5 5 -32 3 -59 l-2 -50 59 0 59 0 1 48 c0 26 1 103 1 172 l0 125 -60 3 -59
3 1 -43 c4 -70 1 -74 -55 -74 -48 0 -49 1 -50 31 -1 16 0 42 1 58 1 27 1 27
-59 27 l-61 0 0 -175z"/>
<path d="M945 2588 c-2 -7 -3 -33 -2 -58 l2 -45 41 -1 c22 0 45 -3 50 -7 6 -3
10 -53 9 -117 l-1 -111 60 3 61 3 0 114 0 115 43 1 c23 1 47 3 53 3 6 1 9 23
7 55 l-3 52 -158 3 c-121 2 -158 0 -162 -10z"/>
<path d="M1317 2457 c1 -78 2 -157 2 -175 l1 -33 57 3 57 3 0 78 c0 42 1 77 2
77 2 0 19 -25 39 -55 21 -30 38 -55 40 -55 1 0 19 25 39 55 20 30 38 55 39 55
2 0 3 -35 3 -77 l-1 -78 59 0 58 0 0 145 c0 80 -1 157 -1 173 -1 26 -2 27 -61
27 l-60 0 -37 -60 -38 -59 -38 59 -37 60 -63 0 -62 0 2 -143z"/>
<path d="M1770 2425 l0 -175 139 0 c102 0 140 3 143 13 4 10 3 70 -1 99 -1 3
-37 5 -81 4 l-80 -2 0 118 0 118 -60 0 -60 0 0 -175z"/>
<path d="M384 2018 c4 -40 9 -100 13 -133 3 -33 7 -78 8 -100 1 -22 5 -68 9
-102 5 -58 9 -97 20 -223 3 -25 7 -81 11 -125 3 -44 8 -93 10 -110 2 -16 7
-66 10 -110 3 -44 8 -100 10 -125 9 -84 14 -135 20 -200 3 -36 8 -85 10 -110
3 -25 8 -81 10 -125 6 -81 9 -122 21 -230 3 -33 6 -70 5 -81 0 -12 5 -26 12
-32 6 -5 82 -29 167 -52 85 -24 184 -51 220 -61 134 -37 257 -71 310 -85 l54
-14 358 100 c198 55 365 100 373 100 8 0 15 3 16 8 0 4 2 16 3 27 3 19 12 111
22 220 2 28 6 70 9 95 3 25 7 81 10 125 3 44 8 91 10 105 2 14 7 61 10 105 4
44 8 98 10 120 2 22 6 72 10 110 3 39 8 95 11 125 3 30 7 82 9 115 3 33 5 60
5 60 2 0 4 26 14 150 4 44 9 96 11 115 2 19 6 71 10 115 3 44 8 91 10 105 2
14 7 62 10 108 l7 82 -922 0 -922 0 6 -72z"/>
</g>
</svg>
